<svg viewBox="0 0 64 64" stroke-width="3" stroke="#666" fill="none" xmlns="http://www.w3.org/2000/svg">
  <defs></defs>
  <path style="fill: rgb(0, 0, 0); stroke-opacity: 0.38;" d="M 30.572 19.934 L 53.189 19.285"></path>
  <path d="M 53.189 50.37 L 9.64 50.37 C 8.535 50.37 7.64 49.475 7.64 48.37 L 7.64 15.63 C 7.64 14.525 8.535 13.63 9.64 13.63 L 23.32 13.63 L 28.75 20 L 31 20" style=""></path>
  <g transform="matrix(0.057361, 0, 0, 0.057361, 13.931071, 21.223399)">
    <defs></defs>
    <path d="M 328.504 -44.669 L 314.191 -16.181 L 330.277 -8.101 L 344.589 -36.587 L 328.504 -44.669 Z M 657.001 -40.112 L 640.313 -33.364 L 652.263 -3.808 L 668.95 -10.554 L 657.001 -40.112 Z M 367.211 -27.512 L 351.876 0.436 L 367.655 9.096 L 382.993 -18.853 L 367.211 -27.512 Z M 622.243 -25.842 L 606.159 -17.761 L 620.471 10.726 L 636.555 2.646 L 622.243 -25.842 Z M 587.329 -7.942 L 572.297 1.958 L 589.831 28.583 L 604.864 18.683 L 587.329 -7.942 Z M 400.235 -6.149 L 381.96 19.973 L 396.708 30.291 L 414.983 4.17 L 400.235 -6.149 Z M 555.525 12.094 L 541.341 23.173 L 560.964 48.3 L 575.15 37.22 L 555.525 12.094 Z M 431.055 17.514 L 409.208 40.73 L 422.315 53.066 L 444.165 29.851 L 431.055 17.514 Z M 527.397 36.402 L 515.331 49.758 L 538.987 71.131 L 551.053 57.775 L 527.397 36.402 Z M 459.338 46.539 L 433.858 65.697 L 444.674 80.084 L 470.157 60.926 L 459.338 46.539 Z M 500.522 67.963 L 492.393 84.023 L 520.838 98.42 L 528.968 82.361 L 500.522 67.963 Z M 477.481 103.081 C 461.081 103.081 443.137 113.151 419.844 136.444 C 416.904 139.384 416.32 141.089 416.215 142.86 C 416.111 144.632 416.743 147.358 419.198 151.45 C 423.714 158.976 434.398 170.13 448.481 184.276 L 448.481 137.081 L 506.481 137.081 L 506.481 184.276 C 520.564 170.13 531.248 158.976 535.764 151.45 C 538.219 147.358 538.851 144.632 538.747 142.86 C 538.642 141.089 538.057 139.384 535.117 136.444 C 511.826 113.151 493.881 103.081 477.481 103.081 Z M 466.481 155.081 L 466.481 241.356 C 468.186 254.063 473.855 257.081 477.481 257.081 C 481.107 257.081 486.776 254.063 488.481 241.356 L 488.481 155.081 L 466.481 155.081 Z M 448.481 230.819 L 422.557 386.366 C 422.646 387.554 423.677 391.152 426.469 395.339 C 429.384 399.711 433.847 404.671 439.243 409.167 C 450.033 418.159 464.481 425.081 477.481 425.081 C 490.481 425.081 504.928 418.159 515.719 409.167 C 521.115 404.671 525.578 399.711 528.493 395.339 C 531.284 391.152 532.316 387.554 532.405 386.366 L 506.481 230.829 C 508.438 250.894 494.438 274.503 477.481 275.081 C 459.143 274.631 448.481 252.309 448.481 230.819 Z M 477.481 350.081 C 495.154 350.081 509.481 360.826 509.481 374.081 C 509.481 387.336 495.154 398.081 477.481 398.081 C 459.808 398.081 445.481 387.336 445.481 374.081 C 445.481 360.826 459.808 350.081 477.481 350.081 Z" style="stroke-width: 3.16842px; fill: rgb(51, 51, 51); stroke: rgb(51, 51, 51);"></path>
  </g>
  <path style="" d="M 53.189 19.285 L 58.994 19.285 C 60.62 19.285 60.883 21.453 60.883 21.453 L 60.684 47.584 L 58.983 50.37 L 53.189 50.37"></path>
</svg>
