<svg fill="#000000" version="1.1" id="Capa_1" width="800px" height="800px" viewBox="0 0 94.971 95.465" xmlns="http://www.w3.org/2000/svg">
  <defs></defs>
  <g transform="matrix(0.156491, 0, 0, 0.156491, 0, 0.606867)">
    <g>
      <g style="">
        <path d="M 58.64 270.154 L 221.294 270.154 C 253.352 270.154 269.434 254.072 269.434 222.014 L 269.434 59.36 C 269.434 27.301 253.352 11.22 221.294 11.22 L 58.64 11.22 C 26.582 11.22 10.5 27.301 10.5 59.36 L 10.5 222.014 C 10.5 254.072 26.582 270.154 58.64 270.154 Z M 43.34 59.36 C 43.34 50.91 50.19 44.06 58.64 44.06 L 221.294 44.06 C 229.744 44.06 236.594 50.91 236.594 59.36 L 236.594 222.014 C 236.594 230.464 229.744 237.314 221.294 237.314 L 58.64 237.314 C 50.19 237.314 43.34 230.464 43.34 222.014 L 43.34 59.36 Z" style="stroke: rgb(0, 0, 0); stroke-width: 2.55606px;"></path>
      </g>
      <g>
        <path d="M 548.238 11.22 L 385.584 11.22 C 353.525 11.22 337.443 27.302 337.443 59.36 L 337.443 222.014 C 337.443 254.072 353.525 270.154 385.584 270.154 L 548.238 270.154 C 580.297 270.154 596.377 254.072 596.377 222.014 L 596.377 59.36 C 596.377 27.301 580.297 11.22 548.238 11.22 Z M 563.537 222.014 C 563.537 230.464 556.687 237.314 548.238 237.314 L 385.584 237.314 C 377.135 237.314 370.283 230.464 370.283 222.014 L 370.283 59.36 C 370.283 50.91 377.135 44.06 385.584 44.06 L 548.238 44.06 C 556.687 44.06 563.537 50.91 563.537 59.36 L 563.537 222.014 Z" style="stroke: rgb(0, 0, 0); stroke-width: 2.55606px; fill: rgb(102, 102, 102);"></path>
      </g>
      <g>
        <path d="M 58.64 595.657 L 221.294 595.657 C 253.352 595.657 269.434 579.577 269.434 547.518 L 269.434 384.864 C 269.434 352.805 253.352 336.723 221.294 336.723 L 58.64 336.723 C 26.582 336.723 10.5 352.805 10.5 384.864 L 10.5 547.518 C 10.5 579.577 26.582 595.657 58.64 595.657 Z M 43.34 384.864 C 43.34 376.415 50.19 369.563 58.64 369.563 L 221.294 369.563 C 229.744 369.563 236.594 376.415 236.594 384.864 L 236.594 547.518 C 236.594 555.967 229.744 562.817 221.294 562.817 L 58.64 562.817 C 50.19 562.817 43.34 555.967 43.34 547.518 L 43.34 384.864 Z" style="stroke: rgb(0, 0, 0); stroke-width: 2.55606px; fill: rgb(102, 102, 102);"></path>
      </g>
      <g>
        <path d="M 548.238 336.724 L 385.584 336.724 C 353.525 336.724 337.443 352.806 337.443 384.865 L 337.443 547.519 C 337.443 579.578 353.525 595.658 385.584 595.658 L 548.238 595.658 C 580.297 595.658 596.377 579.578 596.377 547.519 L 596.377 384.864 C 596.377 352.806 580.297 336.724 548.238 336.724 Z M 563.537 547.519 C 563.537 555.968 556.687 562.818 548.238 562.818 L 385.584 562.818 C 377.135 562.818 370.283 555.968 370.283 547.519 L 370.283 384.864 C 370.283 376.415 377.135 369.563 385.584 369.563 L 548.238 369.563 C 556.687 369.563 563.537 376.415 563.537 384.864 L 563.537 547.519 Z" style="stroke: rgb(0, 0, 0); stroke-width: 2.55606px;"></path>
      </g>
    </g>
  </g>
</svg>
