<svg viewBox="-14 -12 296.048 258.042" xmlns="http://www.w3.org/2000/svg" xmlns:xlink="http://www.w3.org/1999/xlink" xmlns:bx="https://boxy-svg.com">
  <defs>
    <linearGradient id="linearGradient4342" y1="29" y2="8" gradientUnits="userSpaceOnUse" x2="0" gradientTransform="matrix(1, 0, 0, 0.904762, 384.571411, 518.559909)" xlink:href="#linearGradient4194"></linearGradient>
    <linearGradient id="linearGradient4194">
      <stop style="stop-color: rgb(190, 176, 61);" id="stop4196"></stop>
      <stop offset="1" style="stop-color: rgb(255, 250, 185);" id="stop4198"></stop>
    </linearGradient>
    <filter id="blur" primitiveUnits="objectBoundingBox" bx:pinned="true">
      <feGaussianBlur result="gaussian-blur-0" in="none" stdDeviation="0.04"></feGaussianBlur>
    </filter>
  </defs>
  <g transform="matrix(9.001599, 0, 0, 9.001599, -9.001213, -27.004664)">
    <defs id="defs5455"></defs>
    <g id="layer1" transform="matrix(1 0 0 1 -384.57143 -515.798)">
      <path style="fill-rule: evenodd; fill: rgb(191, 177, 99);" id="path4308" d="m 386.57143,518.798 0,7 0,1 28,0 0,-6 -14.00001,0 -2,-2 z"></path>
      <path style="fill-opacity:0.235294;fill-rule:evenodd" id="path4306" d="m 397.57142,523.798 -1.99999,1 -9,0 0,1 6.99999,0 3,0 z"></path>
      <rect x="386.571" y="523.017" width="28" height="19.893" style="fill: rgb(216, 216, 216); stroke: rgb(0, 0, 0); stroke-width: 0.111091px; stroke-opacity: 0.32;"></rect>
      <rect x="387.016" y="523.572" width="28" height="19.893" style="fill: rgb(216, 216, 216); stroke: rgb(0, 0, 0); stroke-width: 0.111091px; stroke-opacity: 0.32;"></rect>
      <rect x="387.464" y="524.089" width="28" height="19.893" style="fill: rgb(216, 216, 216); stroke: rgb(0, 0, 0); stroke-width: 0.111091px; stroke-opacity: 0.32;"></rect>
      <polygon style="stroke: rgb(0, 0, 0); stroke-width: 0px; fill-opacity: 0.3;" points="414.598 524.686 397.571 524.686 395.484 526.882 386.571 526.882 386.571 528.912 414.571 528.912" filter="url(#blur)"></polygon>
      <path style="fill: url(#linearGradient4342); stroke-width: 0px;" id="rect4294" d="M 397.571 525.798 L 395.571 527.608 L 386.571 527.608 L 385.571 527.608 L 385.571 544.798 L 396.571 544.798 L 397.571 544.798 L 415.571 544.798 L 415.571 525.798 L 397.571 525.798 Z"></path>
      <path style="fill: rgb(255, 255, 255); fill-rule: evenodd; fill-opacity: 0.34;" id="path4304" d="M 397.571 526.02 L 395.571 528.02 L 385.571 528.02 L 385.571 529.02 L 396.571 529.02 L 397.571 526.02 Z"></path>
      <path style="fill: rgb(255, 255, 255); fill-rule: evenodd; fill-opacity: 0.31;" id="path4310" d="m 398.57142,518.798 1,3 15.00001,0 0,-1 -14.00001,0 z"></path>
      <rect width="30" x="385.57144" y="543.79797" height="1" style="fill-opacity:0.235294" id="rect4292"></rect>
    </g>
  </g>
</svg>
