<svg xmlns="http://www.w3.org/2000/svg" viewBox="-11.383 -9.60367 142.8 129.6">
	<path d="M 111.4 93.2 C 111.783 97.834 108.9788 100.1276 104.6 100 L 17.8 100 C 10.74 100 9 100.26 9 93.2 L 8.617 16.3446 C 8.7446 13.498 9.6766 10.2724 13.8 10.4 L 51.4 10.4 C 55.42 10.4 55.4754 11.6616 56.6186 13.9878 L 61.48 22.2998 C 62.68 23.9198 64.58 23.2 66.6 23.2 L 104.6 23.2 C 111.0216 23.3276 111.2724 24.9828 111.4 30 L 111.4 93.2 Z M 55.4 85.2 L 65 85.2 L 65 66.4 L 83.8 66.4 L 83.8 56.8 L 65 56.8 L 65 39.4034 L 55.1446 39.4036 L 55.4 56.8 L 36.6 56.8 L 36.6 66.4 L 55.4 66.4 L 55.4 85.2 Z" stroke="#000000" stroke-width="5" fill="none"/>
</svg>
