<svg viewBox="3.826 2.059 51.356 58.453" xmlns="http://www.w3.org/2000/svg" xmlns:xlink="http://www.w3.org/1999/xlink" xmlns:bx="https://boxy-svg.com">
  <defs>
    <filter id="blur" primitiveUnits="objectBoundingBox" bx:pinned="true">
      <title>Blur</title>
      <feGaussianBlur result="gaussian-blur-0" in="none" stdDeviation="0.01"></feGaussianBlur>
    </filter>
    <filter id="blur2" primitiveUnits="objectBoundingBox" bx:pinned="true">
      <feGaussianBlur result="gaussian-blur-0" in="none" stdDeviation="0.03"></feGaussianBlur>
    </filter>
    <linearGradient id="gradient-1" bx:pinned="true">
      <stop offset="0" style="stop-color: rgb(254, 254, 254);"></stop>
      <stop offset="0" style="stop-color: rgb(255, 255, 255);"></stop>
      <stop offset="1" style="stop-color: rgb(177, 177, 177);"></stop>
    </linearGradient>
    <linearGradient id="gradient-1-0" gradientUnits="userSpaceOnUse" x1="26.378" y1="2.059" x2="26.378" y2="56.64" xlink:href="#gradient-1"></linearGradient>
  </defs>
  <path style="stroke: rgb(0, 0, 0); stroke-width: 0.5px; fill: url(#gradient-1-0);" d="M 3.826 2.059 L 4.103 56.64 L 48.929 56.64 L 48.929 10.712 L 41.229 2.133 L 3.826 2.059 Z">
    <title>Paper</title>
  </path>
  <path style="stroke: rgb(0, 0, 0); stroke-linejoin: round; stroke-linecap: round; stroke-width: 0.428; fill: rgb(204, 204, 204);" d="M 41.514 2.059 L 41.535 10.681 L 48.929 10.654 L 41.514 2.059 Z">
    <title>Fold</title>
  </path>
  <path style="stroke: rgb(0, 0, 0); stroke-linejoin: round; stroke-linecap: round; stroke-width: 0px; fill: rgba(0, 0, 0, 0.365); transform-box: fill-box; transform-origin: 50% 50%;" d="M 41.529 10.681 L 41.55 18.085 L 48.929 18.063 L 41.529 10.681 Z" transform="matrix(-1, 0, 0, -1, 0.000002, 0)">
    <title>Fold Shadow</title>
  </path>
  <g style="visibility: hidden;">
    <title>Perforation</title>
    <line style="stroke: rgb(185, 185, 185); stroke-dasharray: 1, 2;" x1="7.306" y1="5.644" x2="7.033" y2="48.906">
      <title>Perforation Left</title>
    </line>
    <line style="stroke: rgb(172, 172, 172); stroke-dasharray: 1, 2;" x1="41.927" y1="12.188" x2="41.654" y2="51.353">
      <title>Perforation Right</title>
    </line>
  </g>
  <text style="fill: rgb(134, 134, 134); font-family: Arial, sans-serif; font-size: 2.8px; font-weight: 900; white-space: pre; visibility: hidden;" x="11.029" y="12.048" filter="url(#blur2)"><title>Title</title>The Crazy Ones</text>
  <g transform="matrix(1.681603, 0, 0, 1.25714, -35.981885, 4.225275)" style="">
    <title>Filetype</title>
    <rect x="30.559" y="33.381" width="21.719" height="10.486" style="stroke: rgb(0, 0, 0); stroke-width: 0; fill: rgba(0, 0, 0, 0.357);" filter="url(#blur2)">
      <title>Filetype Shadow</title>
    </rect>
    <rect x="29.74" y="32.594" width="22.538" height="10.486" style="stroke: rgb(0, 0, 0); stroke-width: 0.3px; fill: rgb(181, 12, 12);">
      <title>Filetype</title>
    </rect>
    <text style="fill: rgb(238, 238, 238); font-family: Tahoma; font-size: 9px; white-space: pre;" transform="matrix(0.938013, 0, 0, 1, 1.032065, 0)" x="31.873" y="41.079"> PDF</text>
  </g>
  <title>Adobe Acrobat Reader icon</title>
  <path d="M 37.659 22.923 C 36.949 22.178 35.493 21.753 33.435 21.753 C 32.335 21.753 31.058 21.859 29.674 22.107 C 28.827 21.291 28.054 20.401 27.367 19.446 C 26.835 18.736 26.373 17.956 25.947 17.21 C 26.764 14.726 27.154 12.703 27.154 11.248 C 27.154 9.616 26.551 7.912 24.812 7.912 C 24.28 7.912 23.747 8.232 23.463 8.693 C 22.683 10.077 23.038 13.093 24.386 16.074 C 23.879 17.598 23.311 19.102 22.683 20.581 C 22.115 21.93 21.476 23.314 20.766 24.591 C 16.863 26.153 14.343 27.963 14.059 29.381 C 13.953 29.914 14.13 30.411 14.521 30.801 C 14.663 30.908 15.16 31.334 16.011 31.334 C 18.601 31.334 21.334 27.146 22.718 24.627 C 23.783 24.272 24.848 23.917 25.912 23.633 C 27.035 23.328 28.172 23.079 29.319 22.888 C 32.051 25.336 34.464 25.727 35.671 25.727 C 37.161 25.727 37.694 25.123 37.871 24.627 C 38.191 23.987 37.977 23.278 37.658 22.923 L 37.659 22.923 Z M 36.239 23.953 C 36.132 24.485 35.599 24.84 34.855 24.84 C 34.642 24.84 34.465 24.804 34.251 24.769 C 32.903 24.449 31.625 23.775 30.348 22.71 C 31.333 22.543 32.33 22.46 33.328 22.462 C 34.074 22.462 34.713 22.497 35.138 22.604 C 35.635 22.71 36.416 23.03 36.238 23.952 L 36.239 23.953 Z M 28.715 22.285 C 27.725 22.47 26.743 22.695 25.77 22.959 C 24.923 23.179 24.082 23.428 23.25 23.704 C 23.683 22.866 24.085 22.014 24.457 21.149 C 24.883 20.155 25.237 19.126 25.593 18.168 C 25.947 18.771 26.338 19.375 26.728 19.907 C 27.366 20.72 28.029 21.513 28.715 22.285 Z M 24.067 9.083 C 24.195 8.826 24.455 8.663 24.741 8.658 C 25.486 8.658 25.628 9.509 25.628 10.184 C 25.628 11.319 25.273 13.058 24.67 15.045 C 23.64 12.277 23.57 9.971 24.067 9.083 Z M 20.163 25.62 C 18.353 28.601 16.614 30.446 15.55 30.446 C 15.359 30.447 15.172 30.385 15.018 30.269 C 14.805 30.056 14.698 29.808 14.769 29.524 C 14.982 28.459 17.04 26.969 20.163 25.62 Z" style="fill: rgb(185, 26, 26);"></path>
  <text style="white-space: pre; fill: rgb(51, 51, 51); font-family: Arial, sans-serif; font-size: 9.4px;" x="12.702" y="40.126">Adobe</text>
</svg>
